# xmcd
#
# Track frame offsets: 
#        150
#        21378
#        40555
#        63049
#        81040
#        104258
#        126454
#        147127
#        163287
#        183746
#        194136
#        213019
#        229146
#        261321
#
# Disc length: 3638 seconds
#
# Revision: 0
# Processed by: cddbd v1.5.2PL0 Copyright (c) Steve Scherf et al.
# Submitted via: ExactAudioCopy v0.99pb3
#
DISCID=cb0e340e
DTITLE=Georges Brassens - Bobino 1969
DYEAR=2006
DGENRE=Chanson
TTITLE0=La rose, la bouteille et la poignée de main
TTITLE1=Rien à jeter
TTITLE2=L'ancêtre
TTITLE3=La non-demande en mariage
TTITLE4=La religieuse
TTITLE5=Bécassine
TTITLE6=Le bulletin de santé
TTITLE7=Sale petit bonhomme
TTITLE8=Le grand chêne
TTITLE9=Dans l'eau de la claire fontaine
TTITLE10=Misogynie à part
TTITLE11=Les amours d'antan
TTITLE12=Supplique pour être enterré à la plage de Sète
TTITLE13=Bonhomme
EXTD=
EXTT0=
EXTT1=
EXTT2=
EXTT3=
EXTT4=
EXTT5=
EXTT6=
EXTT7=
EXTT8=
EXTT9=
EXTT10=
EXTT11=
EXTT12=
EXTT13=
PLAYORDER=
